<?xml version="1.0" encoding="UTF-8"?>
<svg id="Layer_1" data-name="Layer 1" xmlns="http://www.w3.org/2000/svg" xmlns:xlink="http://www.w3.org/1999/xlink" viewBox="0 0 881.13 389.9">
  <defs>
    <style>
      .cls-1, .cls-2 {
      fill: #ce982b;
      }

      .cls-3 {
      fill: url(#linear-gradient);
      }

      .cls-4 {
      fill: #664219;
      }

      .cls-5 {
      fill: #a6772b;
      }

      .cls-2 {
      font-family: Montserrat-Bold, Montserrat;
      font-size: 10.78px;
      font-weight: 700;
      }
    </style>
    <linearGradient id="linear-gradient" x1="324.09" y1="274.32" x2="701.28" y2="274.32" gradientUnits="userSpaceOnUse">
      <stop offset="0" stop-color="#ce982b"/>
      <stop offset="1" stop-color="#9d6828"/>
    </linearGradient>
  </defs>
  <g>
    <path fill="#ce982b" d="m361.49,169.21v.9l-6.61,73.09-.45,6.97-1.57,24.11-.31,4.95h-35.35l-.31-4.95-2.02-31.08-1.44-22.31-5.17-50.78v-.9c0-7.51,6.07-13.63,13.58-13.63h26.09c3.64,0,7.06,1.44,9.63,4.05,2.56,2.56,3.96,5.98,3.96,9.58Z"/>
    <path fill="#ce982b" d="m361.49,374.91v.9c0,7.51-6.07,13.63-13.58,13.63h-26.09c-7.51,0-13.58-6.12-13.58-13.63v-.9l5.17-47.23,1.44-22.31,2.02-31.08.31-4.95h35.35l.31,4.95,1.57,24.11.45,6.97,6.61,69.54Z"/>
    <path fill="#ce982b" d="m700.08,264.49c.25,12.51.64,26.19,1.21,41.79v.18l-337.29-9.49-9.67-.28-16.52-.46-13.65-.39v-43.1l13.65-.39,16.52-.46,9.67-.28h.04l300.73-8.46c-.14,2.17-.32,4.3-.5,6.5l-.71,8,8.03-.28.46-.04c.78,0,1.46-.04,2.24-.18,6.75-1.1,12.15-4.58,16.52-7.82l.07-.07.11-.07c.25-.18.5-.36.75-.53l.28-.21.07-.04.43-.32.21-.14c2.56-1.88,5.15-3.73,7.75-5.58-.25,7.21-.53,14.68-.39,22.14Z"/>
    <path fill="#ce982b" d="m371.83,274.29c0,9.54-3.6,18.22-9.58,24.78-2.16,2.43-4.63,4.5-7.38,6.3-5.76,3.73-12.64,5.89-20.02,5.89-2.47,0-4.86-.22-7.2-.72-4.63-.9-9-2.7-12.82-5.17-7.02-4.54-12.41-11.38-15.07-19.48-1.21-3.64-1.89-7.56-1.89-11.6s.67-7.96,1.89-11.6c2.65-8.1,8.05-14.93,15.07-19.48,3.82-2.47,8.19-4.27,12.82-5.17,2.34-.49,4.72-.72,7.2-.72,7.38,0,14.26,2.16,20.02,5.89,2.74,1.8,5.22,3.87,7.38,6.3,5.98,6.57,9.58,15.25,9.58,24.78Z"/>
    <g>
      <path fill="#ce982b" d="m349.71,271.92c-.46-.85-.96-1.67-1.46-2.59-3.02-5.19-6.5-10.91-10.45-16.99-.04-.04-.07-.11-.11-.14-.04-.07-.07-.11-.11-.18-.07-.14-.18-.25-.25-.39-2.95-4.41-6.18-8.95-9.67-13.61-4.34-5.65-9.06-11.41-14.28-17.13l1.46,22.32c-7.04,4.55-12.44,11.37-15.07,19.47,3.09,3.77,5.9,7.71,8.31,11.62-2.42,3.91-5.22,7.82-8.31,11.58,2.63,8.1,8.03,14.96,15.07,19.47l-1.46,22.32c5.22-5.72,9.95-11.48,14.28-17.13,3.48-4.62,6.72-9.17,9.67-13.57.07-.14.18-.28.25-.43.07-.11.14-.21.21-.32.04-.07.07-.11.11-.18,3.91-5.97,7.36-11.66,10.34-16.81.5-.89,1-1.71,1.46-2.56l1.35-2.38-1.35-2.38Z"/>
      <path fill="#ce982b" d="m152.82,162.78c-1.21.14-2.43.22-3.6.22t.09-.05h.05c1.17,0,2.29-.09,3.46-.18Z"/>
      <path fill="#ce982b" d="m314.84,305.37l-1.44,22.31c-25.28,27.8-61.04,53.98-108.76,60.63-38.14,5.31-70.75-2.74-94.37-23.3-23.52-20.51-36.48-52.72-36.48-90.72,0-27.57,6.84-52.04,19.52-71.25,13.58,6.03,29.01,9.13,45.65,9.13,6.7,0,13.72-.49,20.78-1.48.81-.14,1.66-.22,2.47-.4-5.67,2.52-10.84,5.89-15.34,10.03-13.72,12.55-20.96,31.22-20.96,53.98s7.24,41.43,20.96,53.98c12.95,11.83,31.17,17.41,51.28,15.65,34.99-3.06,77.27-27.84,101.61-58.02,2.65,8.1,8.05,14.93,15.07,19.48Z"/>
      <path fill="#ce982b" d="m186.38,204.48c20.69-6.7,39.99-17.95,57.75-33.51,28.61,11.69,51.55,30.41,69.27,49.93l1.44,22.31c-7.02,4.54-12.41,11.38-15.07,19.48-24.33-30.18-66.61-54.97-101.61-58.02-4-.36-7.96-.4-11.78-.18Z"/>
    </g>
  </g>
  <path fill="url(#linear-gradient)" d="m700.08,264.49c.25,12.51.64,26.19,1.21,41.79l-337.15-9.49-9.84-.28-16.38-.46-13.75-.39h-.07v-43.07l13.61-.39,16.63-.46,9.56-.28,300.9-8.46s0,.11-.04.14c-.14,2.17-.32,4.3-.5,6.5l-.71,8,8.03-.28.46-.04c.78,0,1.46-.04,2.24-.18,6.75-1.1,12.15-4.58,16.52-7.82l.07-.07.11-.07c.25-.18.5-.36.75-.53l.28-.21.07-.04.43-.32.21-.14c2.56-1.88,5.15-3.73,7.75-5.58-.25,7.21-.53,14.68-.39,22.14Z"/>
  <g>
    <path fill="#ce982b" d="m57,189.8c.13.09.26.17.37.26l-.35,8.76-.45,6.97-1.57,24.11-.32,4.94H19.32l-.32-4.94-2.01-31.08-.54-8.61v-.04c.17-.13.35-.26.52-.37,3.82-2.46,8.17-4.27,12.81-5.15,2.33-.5,4.72-.73,7.2-.73,7.38,0,14.26,2.16,20.01,5.89Z"/>
    <path fill="#ce982b" d="m34.53,101.62c0,29.22,8.2,54.95,23.44,74.17l-.52,12.4c-6.1-3.84-13.18-5.89-20.47-5.89-2.67,0-5.13.26-7.55.75-4.59.88-9.12,2.72-13.11,5.26l-.78-11.82L10.37,34.33v-.91c0-7.51,6.08-13.63,13.59-13.63h26.07c3.64,0,7.07,1.44,9.64,4.05.22.22.45.5.63.71-16.87,19.6-25.77,46.28-25.77,77.06Z"/>
  </g>
  <g>
    <path fill="#ce982b" d="m29.78,257.16c-4.42-.86-8.58-2.54-12.25-4.83l1.45-22.43.02-.17.3-4.79h35.35l.32,4.96v.17l1.47,22.26c-5.63,3.52-12.31,5.54-19.45,5.54-2.48,0-4.87-.24-7.2-.71Z"/>
    <path fill="#ce982b" d="m63.6,362.49v.91c0,7.51-6.06,13.63-13.57,13.63h-26.1c-7.51,0-13.59-6.13-13.59-13.63v-.91l5.18-79.22,1.44-22.3.43-6.82c3.71,2.18,7.85,3.75,12.08,4.57,2.37.5,4.83.75,7.51.75,6.94,0,13.67-1.85,19.56-5.33l.45,6.82,6.6,101.52Z"/>
  </g>
  <path fill="#664219" d="m73.95,220.9c0,9.53-3.6,18.2-9.58,24.78-2.16,2.42-4.64,4.49-7.38,6.3-.19.11-.37.24-.56.35-5.63,3.52-12.31,5.54-19.45,5.54-2.48,0-4.87-.24-7.2-.71-4.42-.86-8.58-2.54-12.25-4.83-.19-.11-.39-.24-.56-.35-7.03-4.55-12.42-11.39-15.08-19.48-1.21-3.64-1.9-7.57-1.9-11.6s.69-7.98,1.9-11.6c.32-.99.69-1.96,1.1-2.91.63-1.49,1.36-2.91,2.16-4.29.47-.82.99-1.62,1.55-2.39.58-.84,1.21-1.64,1.85-2.42.32-.39.65-.78.99-1.16.35-.37.69-.73,1.04-1.1.71-.73,1.47-1.42,2.22-2.09.39-.32.78-.65,1.19-.97.8-.63,1.62-1.23,2.46-1.79.17-.13.35-.26.52-.37,3.82-2.46,8.17-4.27,12.81-5.15,2.33-.5,4.72-.73,7.2-.73,7.38,0,14.26,2.16,20.01,5.89.13.09.26.17.37.26.65.43,1.27.88,1.9,1.36,1.85,1.4,3.58,2.95,5.11,4.68,5.97,6.58,9.58,15.25,9.58,24.8Z"/>
  <g>
    <path fill="#664219" d="m149.36,162.96h-.05c-4,.18-7.92,0-11.65-.49,2.88.4,5.85.63,8.91.63.85,0,1.71,0,2.56-.09h.09c1.17,0,2.38-.09,3.6-.22-1.17.09-2.29.18-3.46.18Z"/>
    <path fill="#664219" d="m285.63,99.59c-.51-2.56-1.93-4.96-3.33-7.2-4.86-7.76-10.01-15.38-15.63-22.62-3.82-5.04-7.96-10.08-12.55-15.11-17.05-18.76-39.54-36.7-68.1-46.6-8.64-3.06-17.77-5.35-27.53-6.7-3.87-.54-7.65-.85-11.38-1.08-2.79-.18-5.53-.27-8.28-.27-14.84,0-28.56,2.61-40.66,7.78-8.28,3.46-15.88,8.19-22.58,14.03-2.7,2.34-5.17,4.86-7.51,7.51-1.57,1.8-3.1,3.64-4.5,5.58-13.04,17.45-20.06,40.48-20.06,66.7,0,22.58,5.22,42.87,15.02,59.19,4.68,7.78,10.35,14.71,17.05,20.51,6.88,5.98,14.62,10.8,23.16,14.3,12.01,5.04,25.5,7.56,40.21,7.56,6.3,0,12.82-.45,19.52-1.39,30.86-4.27,56-17.81,75.97-34.41,7.24-5.98,13.76-12.37,19.66-18.85,10.71-11.76,19.86-24.83,28.33-38.27,1.63-2.59,3.28-5.35,3.38-8.41.03-.77-.05-1.52-.19-2.26Zm-43.39,12.1s-.09.05-.09.09c-17.27,21.41-44.71,39.67-70.84,47.41h-.05c-6.3,1.84-12.5,3.06-18.44,3.6-1.21.14-2.43.22-3.6.22h-.09c-.85.09-1.71.09-2.56.09-3.06,0-6.03-.22-8.91-.63-1.12-.13-2.25-.31-3.33-.54-.13-.05-.22-.05-.31-.05-1.62-.31-3.19-.67-4.72-1.12t-.09-.05c-1.08-.27-2.11-.63-3.15-.99-2.11-.67-4.14-1.53-6.07-2.47-.09,0-.13-.05-.18-.05-1.35-.67-2.65-1.39-3.91-2.11-.09-.09-.22-.13-.31-.22-1.35-.81-2.65-1.66-3.91-2.61-1.35-.99-2.65-2.07-3.91-3.24-12.01-11.07-18.4-27.44-18.4-47.41s6.39-36.43,18.4-47.45c.63-.58,1.26-1.12,1.93-1.66,1.3-1.08,2.65-2.07,4.05-3.01,9.22-6.12,20.47-9.36,32.84-9.36,2.07,0,4.14.09,6.25.27,30.72,2.65,67.92,24.47,89.33,50.96.05.05.05.09.09.14,4.77,5.85,4.77,14.35,0,20.2Z"/>
    <path fill="#664219" d="m149.36,162.96h-.05c-4,.18-7.92,0-11.65-.49,2.88.4,5.85.63,8.91.63.85,0,1.71,0,2.56-.09h.09c1.17,0,2.38-.09,3.6-.22-1.17.09-2.29.18-3.46.18Zm0,0h-.05c-4,.18-7.92,0-11.65-.49,2.88.4,5.85.63,8.91.63.85,0,1.71,0,2.56-.09h.09c1.17,0,2.38-.09,3.6-.22-1.17.09-2.29.18-3.46.18Zm0,0h-.05c-4,.18-7.92,0-11.65-.49,2.88.4,5.85.63,8.91.63.85,0,1.71,0,2.56-.09h.09c1.17,0,2.38-.09,3.6-.22-1.17.09-2.29.18-3.46.18Zm0,0h-.05c-4,.18-7.92,0-11.65-.49,2.88.4,5.85.63,8.91.63.85,0,1.71,0,2.56-.09h.09c1.17,0,2.38-.09,3.6-.22-1.17.09-2.29.18-3.46.18Z"/>
  </g>
  <g id="_408OG2.tif" data-name="408OG2.tif">
    <g>
      <path fill="#ce982b" d="m456.89,177.29c1.15,1.82.83,3.85.85,5.94h-7.04c.43,1.14.75,2.14,1.17,3.09,4.22,9.48,13.12,33.14,17.44,42.58.91,1.99,2.22,3.83,3.55,5.59,1.38,1.82,3,2.01,5.07,1.03.74-.35,1.53-.63,2.32-.86,1.06-.3,1.95.3,2.14,1.36.94,5.28-3.07,10.02-8.53,10.26-4.37.19-7.55-1.77-10.03-5.06-1.01-1.34-1.79-2.84-2.68-4.27-.2-.32-.43-.63-.71-1.05-.75.62-1.38,1.2-2.05,1.71-3,2.28-6,4.56-9.04,6.79-2.12,1.55-4.59,2.24-7.17,2.48-2.65.25-5.05-.64-6.91-2.47-4.84-4.79-6.9-10.56-5.48-17.26.77-3.61,2.97-6.54,5.52-9.17,2.74-2.84,5.54-5.63,8.31-8.43,1.81-1.84-2.94-15.98-4.18-18.22-.93-1.68-1.84-3.39-2.61-5.15-.87-2-2.21-3.11-4.5-2.91-.71.06-1.44,0-2.32,0v-5.99h26.87Zm-5.1,42.88c-.77.72-1.44,1.31-2.06,1.95-2.24,2.27-4.76,4.34-6.61,6.89-3.21,4.42-2.78,6.69,1.22,9.13.03.02.06.04.09.05,1.07.58,2.21.68,3.15-.08,2.98-2.41,5.89-4.9,8.84-7.36.6-.5.58-1.03.23-1.69-1.4-2.61-2.76-5.23-4.14-7.85-.16-.31-.4-.58-.72-1.04Z"/>
      <path fill="#ce982b" d="m631.38,180.76v5.98h-6.64c.62,1.67,1.09,3.2,1.74,4.65,4,8.92,12.69,22.56,16.83,31.42.97,2.07,2.53,3.87,3.8,5.81,1.3,1.98,3.23,1.55,4.9,1.06.92-.27,1.87-.44,2.83-.56.73-.1,1.09.32,1.2,1.05,1,6.95-3.63,9.57-8.6,10.15-3.14.36-5.69-.76-7.65-3.11-1.7-2.03-3.3-4.15-4.88-6.27-.56-.76-.89-.95-1.73-.24-3.03,2.58-6.15,5.07-9.25,7.58-1.71,1.38-3.64,2.37-5.84,2.61-3.71.41-6.86-.93-9.57-3.35-2.94-2.63-4.41-6.03-4.91-9.85-.69-5.37.59-10.23,4.33-14.25,2.88-3.1,1.22-10.75,4.23-13.72,2.44-2.4,2.52-2.73.91-5.69-1.02-1.88-2.04-3.77-3.03-5.66-.61-1.17-1.52-1.66-2.88-1.63-2.92.07-4-1.35-3.46-4.33.1-.55.24-1.09.36-1.64,9.1,0,18.2,0,27.3,0Zm-5.65,33.4c-2.15,2.06-4.14,3.92-6.07,5.84-1.76,1.75-3.29,3.7-4.19,6.04-.89,2.32-.32,3.91,1.87,5.54,1.93,1.44,3.25,1.51,5.27-.08,2.34-1.84,4.57-3.82,6.8-5.79,1.04-.92,1.37-2.07.69-3.37-1.04-1.99-2.08-3.98-3.13-5.97-.36-.68-.75-1.35-1.24-2.22Z"/>
      <path fill="#ce982b" d="m579.63,234.81c-1.95,1.59-3.58,3.12-5.41,4.36-7.78,5.26-16.21,5.16-23.88-.25-1.64-1.16-3.15-2.5-4.63-3.86-.68-.62-1.09-.78-1.87-.14-3,2.47-6.14,4.76-9.78,6.24-1.63.66-3.32,1.17-4.99,1.73-.87.29-1.47.02-1.75-.88-.3-.99-.64-1.96-.94-2.95-.25-.84-.04-1.4.78-1.95,3.45-2.33,6.87-4.72,10.22-7.18,1.9-1.39,1.82-1.6.67-3.68-1.38-2.5-2.92-4.94-3.97-7.57-3.14-7.85-2.65-25.13.69-32.83,1.24-2.87,3.3-5,6.36-5.85,4.26-1.18,8.07-.45,10.58,3.52,1.58,2.5,2.24,5.28,2.66,8.17.92,6.32.96,22.03-1.2,28.13-.71,2-1.8,3.87-2.74,5.79-.33.67-.74,1.3-1.12,1.95-.38.65-.3,1.28.28,1.73,2.71,2.07,5.29,4.33,8.19,6.09,3.41,2.07,7.11,1.67,10.54-.15,1.73-.91,3.3-2.17,4.81-3.42,1.31-1.08,1.38-1.84.66-3.42-.4-.88-.86-1.72-1.33-2.57-2.01-3.67-2.9-7.62-3.3-11.74-.54-5.46.45-20.16,1.99-25.34.95-3.22,3.04-5.71,5.65-7.79,3-2.39,9.41-1.73,11.86,2.04,1.72,2.64,2.58,5.54,3.05,8.59,1.46,9.33-.41,27.42-5.48,35.41-.55.88-1.08,1.77-1.66,2.63-.44.64-.32,1.15.25,1.57,1.01.75,2.02,1.5,3.07,2.19,1.89,1.24,3.79,2.48,5.73,3.65,1.22.74,1.72,1.7,1.57,3.12-.4,3.73-.98,4.15-4.47,2.81-4.07-1.56-7.58-3.94-10.45-7.21-.28-.32-.5-.69-.66-.92Z"/>
      <path fill="#ce982b" d="m425.16,183.79h-14.5c0,.52,0,.96,0,1.41.02,12.02.05,42.92.05,54.94,0,3.1-1.05,5.74-3.69,7.57-2.89,2-5.79,1.35-8.08-1-1.52-1.55-2.23-3.57-2.39-5.72-.13-1.68.35-2.25,2.01-2.61,2.45-.53,2.47-.53,2.47-3.01,0-9.91.04-38.71-.03-48.63-.02-3.45.04-2.95-3.13-2.97-4.08-.03-8.15,0-12.47,0,.23.68.38,1.23.62,1.75.8,1.71,1.71,22.26,2.44,24,.43,1.01.66,2.11.87,3.18.25,1.26-.49,1.86-1.72,1.37-1.03-.41-2.04-.92-2.96-1.54-4.9-3.27-9.77-25.48-14.66-28.77-.65-.44-1.07-.97-.93-1.78.32-1.82.63-3.63,1.02-5.44.19-.86.86-1.28,1.76-1.3.22,0,.43,0,.65,0,16.68,0,33.36,0,50.05.01.57,0,1.2.03,1.68.28.41.22.89.76.9,1.18.09,2.31.04,4.62.04,7.08Z"/>
      <path fill="#ce982b" d="m487.33,238.9c2.39,0,4.8,0,7.22,0,5.11,0,8.25-3.99,7.05-8.91-.66-2.71-2.15-4.96-3.87-7.09-1.44-1.78-7.58-13.04-9.16-14.7-5.14-5.41-5.6-11.53-2.98-18.15.72-1.82,1.58-3.59,2.36-5.39.12-.28.23-.58.42-1.06-.7-.04-1.26-.1-1.81-.1-3.47.01-6.93.01-10.4.08-.95.02-1.32-.26-1.19-1.21.09-.63.12-1.28.08-1.92-.06-.8.34-.96,1.04-.96,12.28.04,24.55.07,36.83.08,2.31,0,4.62-.02,6.93-.12,1.04-.05,1.46.41,1.6,1.3.04.28.04.57.04.85,0,6.67.02,13.34-.02,20.01,0,.67-.27,1.38-.57,2-.28.58-.82.57-1.19.02-.36-.53-.69-1.09-.95-1.67-1.05-2.38-2.06-4.78-3.11-7.17-2.72-6.19-7.55-9.72-14.19-10.96-1.75-.33-3.47-.64-5.25-.17-3.52.93-4.93,3.6-5.69,6.76-.66,2.77.2,5.36,1.85,7.46,2.15,2.74,4.69,5.21,7.15,7.7,2.24,2.27,9.4,13.8,11.62,16.08,2.41,2.47,3.7,5.48,3.81,8.95.12,3.91-1.58,6.95-4.79,9.04-4.43,2.89-9.36,4.16-14.69,3.82-2.4-.15-4.7-.67-6.9-1.64-1.49-.66-1.77-1.33-1.22-2.96Z"/>
    </g>
  </g>
  <g id="zeMc5R.tif">
    <g>
      <path fill="#664219" d="m757.61,184.14c-.28.22-.55.45-.81.69-13.68,11.86-21.95,27.4-24.57,46.19l-.03.22v.17l-.05.23-.03.11v.09c-.98,7.51-.31,14.16,2.07,20.31,1.93,5.08,5.47,5.83,7.42,5.83,1.39,0,2.74-.33,4.16-1.03,2.46-1.23,4.5-2.62,6.11-4.16-.31,3.52-.61,7.06-.89,10.59-1.15,14.75-1.42,29.54-1.15,44.29-.05.06-.05.09,0,.17.08,5.61.25,11.23.47,16.86-.72.84-1.45,1.65-2.17,2.48-2.24,2.49-4.66,4.99-6.99,7.42-1.04,1.09-2.1,2.18-3.15,3.27-3.66,3.89-5.41,9.55-4.55,14.78.83,5.11,3.99,9.35,8.88,11.96l.51.28c1,.53,2.09,1.12,3.26,1.59-1.92,1.36-4.49,2.62-7.9,3.93-4.67,1.81-9.42,2.82-14.36,2.82-.98,0-1.98-.08-3.02-.14-5.34-.44-8.79-3.4-9.27-8.83-.95-11.57-1.76-23.18-2.26-34.8-.33-7.57-.61-15.19-.87-22.78-.02-.05-.02-.11-.02-.2-.5-14-.93-28.06-1.22-42.14-.14-7.46.14-14.94.42-22.4,0-.09,0-.16.05-.2.09-2.98.2-5.95.28-8.94.03-1,0-1.95,0-2.91-.36-.23-.72-.45-1.06-.72-6.2,4.38-12.45,8.68-18.54,13.16-.06.02-.17.11-.23.17-.5.36-1.03.7-1.53,1.09-4.11,3.07-8.4,5.72-13.57,6.54-.33.08-.72.08-1.68.11.22-2.48.39-4.89.59-7.32.02-.06.02-.09.02-.14.17-2.03.36-4.07.64-6.04.19-1.03,1.39-2.2,2.43-2.85,17.54-10.83,28.27-26.45,32.47-46.53.89-4.27,2.8-7.46,6.37-9.94,6.32-4.42,12.68-8.61,20.78-9.05.39-.02.75-.02,1.12-.02,6.34,0,11.57,2.54,15.84,7.28.98,1.09,1.87,2.31,2.8,3.44,1.31,1.67,2.38,3.33,3.22,5.08Z"/>
      <path fill="#664219" d="m881.13,206.7v13.88c-.44,1.5-.86,3.01-1.22,4.49-.19.78-.36,1.56-.53,2.35-.05.06-.05.12-.05.17-1.25,5.48-2.15,11.03-4.11,16.15-5.59,14.92-15.97,26.37-28.71,35.5-11.37,8.18-23.32,15.56-35.11,23.21-.06.08-.17.14-.26.19-1.12.78-2.31,1.51-3.43,2.26-1.79,1.22-3.54,2.46-5.25,3.68.06.23.17.5.23.73h9.36c16.58,0,32.43,3.6,47.37,10.76,5.45,2.62,10.47,6.18,15.63,9.42,1.31.81,2.37,2.17,1.04,3.68-1.74,2.03-1.74,4.35-1.7,6.78.06,3.52.44,7.06-.05,10.5-1.76,13.16-6.11,19.58-16.75,20.03.42.33.84.61,1.26.93h-8.3c1.17-.33,2.37-.62,3.74-.95-.37-.22-.59-.47-.81-.47-9.27-.14-17.29-4.25-25.53-7.71-7.32-3.05-14.6-6.31-22.15-8.77-4.84-1.6-9.71-2.41-14.49-2.41-6.59,0-13.07,1.53-19.43,4.66-5.42,2.65-10.66,5.56-16.19,7.96-1.09.5-2.41.67-3.72.67-.89,0-1.78-.08-2.59-.22-.22-.03-.41-.06-.62-.11-1.73-.39-3.36-1.34-4.99-2.2-9.53-5.09-8.99-16.08-3.54-21.86,3.43-3.6,6.92-7.12,10.22-10.78.95-1.07,1.9-2.15,2.82-3.26,6.79-8.12,13.57-16.25,20.35-24.41.02-.05.06-.06.12-.14,7.51-9.1,15.03-18.2,22.6-27.29,6.51-7.8,13.51-15.25,19.54-23.43,5.13-6.92,9.92-14.1,13.83-21.73.05-.06.06-.11.11-.17,3.33-6.48,6.08-13.23,7.85-20.41,1.26-5.09,1.36-10.64.92-15.92-.53-7.24-7.4-13.01-16.17-13.88-2.54-.26-5.06-.39-7.59-.39-1.26,0-2.46.02-3.68.11-1.25.06-2.46.17-3.66.3-1.22.16-2.41.33-3.58.55-1.2.22-2.37.5-3.55.78-1.17.31-2.38.69-3.52,1.07-1.17.39-2.31.81-3.46,1.31-1.12.5-2.26,1.04-3.36,1.6-1.14.59-2.24,1.2-3.33,1.92-6.12,3.83-11.62,8.3-15.03,14.82-.97,1.85-1.81,4.22-1.57,6.25.97,8.79-1.34,16.58-5.56,23.73-.09.09-.11.11-.11.2-.72,1.12-1.43,2.26-2.2,3.36-3.16,4.52-6.42,9-9.89,13.3-.51.65-1.03,1.29-1.57,1.95-1.65,1.98-4.05,3.55-6.37,4.72-1.01.5-1.93.7-2.79.7-2.03,0-3.55-1.32-4.5-3.83-2.35-6.08-2.74-12.34-1.9-18.79.05-.22.08-.44.11-.61v-.19c2.66-19.13,11.05-33.45,23.52-44.27,8.07-7.04,17.9-12.57,29.01-17.04,11.2-4.49,23.01-6.68,34.93-6.84h1.59c1.25,0,2.51.05,3.74.09h.2c.26,0,.48.02.72.02.72.05,1.43.11,2.09.16,1.11.06,2.13.17,3.24.33h.05c.61.06,1.17.12,1.76.2.98.14,1.9.28,2.8.45.61.11,1.2.22,1.79.36.61.11,1.17.25,1.74.41,1.12.28,2.23.56,3.33.9.08,0,.19.05.3.11,1.06.33,2.15.69,3.24,1.11,1.09.42,2.2.9,3.29,1.4.67.3,1.34.62,2.04.98,0,0,.02,0,.02.03.3.14.61.3.9.47.28.17.61.34.89.55.62.34,1.28.73,1.87,1.12,1.26.79,2.46,1.64,3.68,2.6.59.45,1.15.9,1.74,1.4.61.51,1.17,1.04,1.73,1.57.58.55,1.14,1.06,1.68,1.64,7.66,7.99,12.4,17.37,12.24,28.77-.05.37.06.72.22,1.65.61-1.26,1.03-2.06,1.46-2.91Z"/>
    </g>
  </g>
  <path fill="#664219" d="m376.97,376.59c-.98-.04-1.93-.94-2.83-2.68-.9-1.74-1.39-3.91-1.45-6.51v-57.02c.06-2.6.55-4.77,1.45-6.51.9-1.74,1.85-2.63,2.83-2.68h14.37c1.74.05,3.39.58,4.93,1.6,1.54,1.02,2.79,2.6,3.76,4.73.97,2.13,1.47,4.48,1.5,7.03v5.85c-.16,4.32-1.52,25.28-4.09,27.37,2.57,2.09,3.93,5.29,4.09,9.6v5.85c-.03,2.55-.55,4.91-1.55,7.06s-2.31,3.75-3.93,4.77c-1.62,1.02-3.19,1.53-4.71,1.53h-14.37Zm11.89-37.72v-20.69c.03-1.3-.29-2.04-.95-2.23h-2.57v25.7h1.05c1.36,0,2.19-.93,2.47-2.79Zm0,17.82c-.29-1.86-1.11-2.79-2.47-2.79h-1.05v7.93h2.57c.67-.18.98-.93.95-2.23v-2.92Zm31.42,5.5l-.14,7.52c0,1.49-.37,2.83-1.12,4.04-.74,1.21-1.74,1.81-2.97,1.81h-4.47c-1.3,0-2.32-.6-3.07-1.81-.75-1.2-1.09-2.55-1.02-4.04l1.14-47.2c.57-6.96,1.83-11.83,3.76-14.62,1.94-2.78,4.62-4.18,8.04-4.18h2.95c3.43,0,6.11,1.39,8.04,4.18,1.93,2.78,3.19,7.66,3.76,14.62l1.14,46.67c.06,1.49-.28,2.83-1.02,4.04-.74,1.21-1.77,1.81-3.07,1.81l-4.5.14c-1.24,0-2.2-.74-2.94-1.95-.75-1.2-1.12-2.55-1.12-4.04l-.14-6.98h-3.24Zm.71-37.18l-.38,17.82h2.57l-.38-17.82c-.09-1.86-.17-3.33-.24-4.42s-.24-1.8-.52-2.12h-.29c-.29.33-.46,1.03-.52,2.12s-.14,2.56-.24,4.42Zm25.42,49.6c-1.27,0-2.24-.73-2.99-1.94-.75-1.2-1.1-2.55-1.07-4.04l-.03-58.11c-.03-1.44.32-2.76,1.07-3.97.75-1.21,1.75-1.81,3.02-1.81h4.47c1.27,0,2.28.6,3.02,1.81.74,1.2,1.1,2.53,1.07,3.97v31.2h3.62v-31.2c-.03-1.44.33-2.76,1.07-3.97.75-1.21,1.75-1.81,3.02-1.81h4.47c1.27,0,2.28.6,3.02,1.81.74,1.2,1.1,2.53,1.07,3.97l-.06,57.65c.03,1.49-.33,2.83-1.07,4.04-.75,1.21-1.75,1.81-3.02,1.81l-4.51.14c-1.27,0-2.24-.75-2.98-1.95-.74-1.2-1.1-2.55-1.07-4.04l.06-14.34h-3.62l.03,14.81c.03,1.49-.33,2.83-1.07,4.04-.75,1.21-1.75,1.81-3.02,1.81l-4.5.13Zm35.15-1.13c-.98-.04-1.93-.94-2.83-2.68-.91-1.74-1.39-3.91-1.45-6.51v-49.91c.06-2.6.55-4.77,1.45-6.51.91-1.74,1.85-2.63,2.83-2.68h11.99c2.92.14,5.34,1.47,7.26,4,1.92,2.53,3.25,5.62,4,9.26.75,3.64,1.15,7.25,1.22,10.82v9.47c-.07,3.57-.47,17.84-1.22,21.48s-2.08,6.73-4,9.26c-1.92,2.53-4.34,3.86-7.26,4h-11.99Zm10.66-15.31c.47-.6.8-2.04.98-4.32.17-2.27.26-14.56.26-15.53v-8.63c0-.97-.09-2.6-.26-4.87-.18-2.27-.5-3.71-.98-4.32-.57-.51-1.33-.69-2.29-.55v38.78c.96.14,1.72-.04,2.29-.55Zm19.76-41.66c.06-2.6.55-4.77,1.45-6.51.9-1.74,1.85-2.63,2.83-2.68h21.98c.79.09,1.44.59,1.93,1.5.49.91.74,1.94.74,3.1v5.57c0,1.16-.25,2.19-.74,3.1s-1.13,1.41-1.93,1.5h-13.61v15.18h10.85c.79.1,1.43.59,1.93,1.5s.74,1.94.74,3.1v2.79c0,1.16-.25,2.19-.74,3.1-.49.91-1.13,1.41-1.93,1.5h-10.85v8.07h13.61c.79.1,1.44.59,1.93,1.5s.74,1.94.74,3.1v5.57c0,1.16-.25,2.19-.74,3.1-.49.9-1.13,1.4-1.93,1.5l-22.01.6c-.99-.04-1.89-1.54-2.79-3.28-.91-1.74-1.39-3.91-1.45-6.51v-46.36Zm35.32-4.44c0-1.39.37-2.69,1.12-3.9.75-1.21,1.77-1.81,3.07-1.81h4.47c1.24,0,2.23.6,2.97,1.81.75,1.2,1.09,2.51,1.02,3.9v44.27h11.13c.79.1,1.43.59,1.93,1.5.49.91.74,1.94.74,3.1v5.57c0,1.16-.25,2.19-.74,3.1-.49.9-1.13,1.4-1.93,1.5l-18.73.55c-1.49-.04-2.71-1.5-3.63-3.27-.92-1.76-1.4-4.24-1.43-7.45v-48.87Zm37.34,58.62c-1.24,0-2.16-1.14-2.91-2.35-.75-1.2-1.12-2.55-1.12-4.04v-49.49c0-1.49.37-2.83,1.12-4.04.75-1.21,1.74-1.81,2.97-1.81h3.71c2.41,0,4.06,1.58,4.95,4.73l3.52,15.38v-14.27c0-1.49.37-2.83,1.12-4.04.75-1.21,1.74-1.81,2.97-1.81h4.47c1.24,0,2.27.62,3.09,1.88.67,1.16,1,2.48,1,3.97v49.49c0,1.49-.37,2.83-1.12,4.04-.75,1.21-1.74,1.81-2.97,1.81l-3.78.08c-2.41,0-3.99-1.66-4.88-4.81l-3.52-11.83v10.72c0,1.49-.37,2.83-1.12,4.04-.74,1.21-1.8,2.35-3.04,2.35h-4.47Zm29.16-53.19v-3.34c0-1.49.37-2.83,1.12-4.04.75-1.21,1.77-1.81,3.07-1.81h4.47c1.24,0,2.23.6,2.97,1.81.74,1.2,1.1,2.55,1.07,4.04l.05,2.09c-.03,4.73.51,13.25,1.62,18.45h.28c1.11-5.2,1.65-13.71,1.62-18.45l.05-2.09c-.03-1.49.33-2.83,1.07-4.04.75-1.21,1.74-1.81,2.97-1.81h4.47c1.3,0,2.32.6,3.07,1.81.74,1.2,1.12,2.55,1.12,4.04v3.34c0,3.85-.98,12.37-2.95,18.45-1.97,6.08-3.71,9.93-5.23,11.56v15.73c.03,1.76-.33,3.25-1.07,4.45-.75,1.21-1.75,1.81-3.02,1.81h-4.47c-1.27,0-2.28-.6-3.02-1.81-.74-1.2-1.1-2.69-1.07-4.45v-15.73c-1.52-1.63-3.27-5.48-5.23-11.56-1.97-6.08-2.95-14.6-2.95-18.45Z"/>
  <path fill="#a6772b" d="m649.33,335.59v-16.28h-2.38c-.35-.04-.63-.26-.84-.65-.22-.4-.32-.85-.32-1.36v-2.44c0-.51.11-.96.32-1.36.21-.4.5-.61.84-.65h10.34c.35.04.63.26.84.65.21.4.32.85.32,1.36v2.44c0,.51-.11.96-.32,1.36-.22.4-.5.62-.84.65h-2.38v16.28c0,.61-.16,1.18-.49,1.71-.33.53-.76.79-1.3.79l-2.07.05c-.54,0-.91-.31-1.23-.84-.33-.53-.49-1.1-.49-1.71Zm17.3-3.9l-.06,3.29c0,.65-.16,1.24-.49,1.77-.33.53-.76.99-1.3.99l-1.94.04c-.57,0-1.03-.5-1.36-1.03-.33-.53-.48-1.12-.45-1.77l.5-14.45c.25-3.05.8-5.18,1.65-6.4s2.02-1.83,3.52-1.83h1.29c1.5,0,2.68.61,3.52,1.83.85,1.22,1.4,3.35,1.65,6.4l.5,14.45c.03.65-.12,1.24-.45,1.77-.33.53-.77.79-1.34.79l-1.94.05c-.54,0-.99-.31-1.32-.84-.33-.53-.49-1.12-.49-1.77l-.06-3.29h-1.42Zm.31-10.06l-.17,4.7h1.12l-.17-4.7c-.04-.81-.08-1.46-.1-1.94-.03-.48-.1-.79-.23-.93h-.13c-.13.14-.2.45-.23.93-.03.48-.06,1.12-.1,1.94Zm13.32,13.06v-16.28h-2.38c-.35-.04-.63-.26-.84-.65-.22-.4-.32-.85-.32-1.36v-2.44c0-.51.11-.96.32-1.36.21-.4.5-.61.84-.65h10.34c.35.04.63.26.84.65.21.4.32.85.32,1.36v2.44c0,.51-.11.96-.32,1.36-.22.4-.5.62-.84.65h-2.38v16.28c0,.61-.16,1.18-.49,1.71-.33.53-.76.79-1.3.79l-2.04.07c-.54,0-.94-.33-1.27-.86-.33-.53-.49-1.1-.49-1.71Zm15.29-3.61l-.06,3.29c0,.65-.16,1.24-.49,1.77-.33.53-.76.79-1.3.79h-1.96c-.57,0-1.02-.26-1.34-.79-.33-.53-.48-1.12-.45-1.77l.5-14.45c.25-3.05.8-5.18,1.65-6.4.85-1.22,2.02-1.83,3.52-1.83h1.29c1.5,0,2.68.61,3.52,1.83.85,1.22,1.4,3.35,1.65,6.4l.5,14.45c.03.65-.12,1.24-.45,1.77-.33.53-.82,1.22-1.39,1.22l-1.91-.43c-.54,0-.98-.26-1.3-.79-.33-.53-.49-1.12-.49-1.77l-.06-3.29h-1.42Zm.31-10.06l-.17,4.7h1.12l-.17-4.7c-.04-.81-.08-1.46-.1-1.94-.03-.48-.1-.79-.23-.93h-.13c-.13.14-.2.45-.23.93-.03.48-.06,1.12-.1,1.94Z"/>
  <path fill="#a6772b" d="m650.87,363.4v-16.28h-2.38c-.35-.04-.63-.26-.84-.65-.22-.4-.32-.85-.32-1.36v-2.44c0-.51.11-.96.32-1.36.21-.4.5-.61.84-.65h10.34c.35.04.63.26.84.65.21.4.32.85.32,1.36v2.44c0,.51-.11.96-.32,1.36-.22.4-.5.62-.84.65h-2.38v16.28c0,.61-.16,1.18-.49,1.71-.33.53-.76.79-1.3.79l-2.07.05c-.54,0-.91-.31-1.23-.84-.33-.53-.49-1.1-.49-1.71Zm17.3-3.9l-.06,3.29c0,.65-.16,1.24-.49,1.77-.33.53-.76.99-1.3.99l-1.94.04c-.57,0-1.03-.5-1.36-1.03-.33-.53-.48-1.12-.45-1.77l.5-14.45c.25-3.05.8-5.18,1.65-6.4.85-1.22,2.02-1.83,3.52-1.83h1.29c1.5,0,2.68.61,3.52,1.83.85,1.22,1.4,3.35,1.65,6.4l.5,14.45c.03.65-.12,1.24-.45,1.77-.33.53-.77.79-1.34.79l-1.94.05c-.54,0-.99-.31-1.32-.84-.33-.53-.49-1.12-.49-1.77l-.06-3.29h-1.42Zm.31-10.06l-.17,4.7h1.12l-.17-4.7c-.04-.81-.08-1.46-.1-1.94-.03-.48-.1-.79-.23-.93h-.13c-.13.14-.2.45-.23.93-.03.48-.06,1.12-.1,1.94Zm13.32,13.06v-16.28h-2.38c-.35-.04-.63-.26-.84-.65-.22-.4-.32-.85-.32-1.36v-2.44c0-.51.11-.96.32-1.36.21-.4.5-.61.84-.65h10.34c.35.04.63.26.84.65.21.4.32.85.32,1.36v2.44c0,.51-.11.96-.32,1.36-.22.4-.5.62-.84.65h-2.38v16.28c0,.61-.16,1.18-.49,1.71-.33.53-.76.79-1.3.79l-2.04.07c-.54,0-.94-.33-1.27-.86-.33-.53-.49-1.1-.49-1.71Zm15.29-3.61l-.06,3.29c0,.65-.16,1.24-.49,1.77-.33.53-.76.79-1.3.79h-1.96c-.57,0-1.02-.26-1.34-.79-.33-.53-.48-1.12-.45-1.77l.5-14.45c.25-3.05.8-5.18,1.65-6.4s2.02-1.83,3.52-1.83h1.29c1.5,0,2.68.61,3.52,1.83.85,1.22,1.4,3.35,1.65,6.4l.5,14.45c.03.65-.12,1.24-.45,1.77-.33.53-.82,1.22-1.39,1.22l-1.91-.43c-.54,0-.98-.26-1.3-.79-.33-.53-.49-1.12-.49-1.77l-.06-3.29h-1.42Zm.31-10.06l-.17,4.7h1.12l-.17-4.7c-.04-.81-.08-1.46-.1-1.94-.03-.48-.1-.79-.23-.93h-.13c-.13.14-.2.45-.23.93-.03.48-.06,1.12-.1,1.94Z"/>
  <text fill="#ce982b" transform="translate(764.76 342.47) rotate(-22.43)"><tspan x="0" y="0">14-15 July 2023</tspan></text>
</svg>