<?xml version="1.0" encoding="UTF-8" standalone="no"?>
<!DOCTYPE svg PUBLIC "-//W3C//DTD SVG 1.1//EN" "http://www.w3.org/Graphics/SVG/1.1/DTD/svg11.dtd">
<svg xmlns="http://www.w3.org/2000/svg" version="1.1" viewBox="0 0 1053 1280">
<g stroke-width="5.00" fill="none" stroke-linecap="butt">
</g>
<g fill="#7cad42">
<path d="
  M 216.69 657.76
  Q 216.86 657.93 217.25 657.98
  Q 267.94 663.36 318.67 668.47
  C 355.56 672.18 394.24 688.32 425.74 707.52
  Q 447.34 720.69 472.07 737.93
  C 502.34 759.03 534.94 778.18 571.22 790.01
  Q 619.19 805.64 669.79 808.30
  A 1.44 1.38 -60.1 0 0 670.69 808.04
  Q 713.34 777.52 754.91 745.63
  C 760.90 741.03 766.78 736.99 772.85 732.87
  C 797.46 716.17 827.10 710.10 856.50 712.71
  A 0.88 0.86 20.5 0 0 857.29 712.36
  C 893.22 662.96 948.38 625.64 1012.43 635.59
  Q 1022.76 637.20 1032.60 643.46
  C 1063.59 663.16 1055.23 703.69 1032.63 725.80
  C 1016.91 741.17 993.52 747.01 972.25 741.86
  Q 967.91 740.81 963.89 737.45
  C 951.00 726.70 952.88 707.34 966.98 699.09
  Q 975.63 694.03 986.86 697.24
  A 0.71 0.37 15.6 0 1 987.44 697.79
  Q 985.77 703.65 985.92 709.75
  A 1.37 1.25 82.5 0 0 987.50 711.08
  C 1002.17 707.15 1018.36 691.84 1007.24 675.70
  C 985.60 644.30 937.21 669.98 914.37 685.34
  Q 890.44 701.43 869.46 720.81
  A 0.64 0.64 -49.3 0 0 869.53 721.81
  C 893.95 738.06 891.01 769.80 876.56 791.30
  C 865.46 807.82 849.24 821.06 832.38 831.33
  C 777.29 864.90 715.14 871.22 652.01 869.71
  A 1.36 1.31 24.6 0 0 651.12 870.02
  Q 617.87 897.42 584.08 924.04
  C 551.24 949.92 513.23 970.26 474.07 984.84
  C 432.06 1000.49 388.01 1008.11 343.43 1004.06
  C 277.19 998.06 217.49 972.24 159.43 941.11
  Q 138.78 930.03 116.68 913.82
  C 114.12 911.93 111.65 910.19 112.83 906.62
  C 115.05 899.93 122.04 904.60 125.21 906.77
  Q 147.49 922.02 171.03 935.17
  Q 180.29 940.35 188.98 943.90
  C 272.15 977.88 368.64 971.92 451.31 940.81
  C 502.17 921.66 549.74 894.90 594.89 863.97
  Q 595.53 863.53 594.80 863.27
  C 571.30 854.96 547.87 846.48 524.39 838.13
  Q 487.59 825.05 457.51 808.74
  C 430.99 794.36 405.67 778.19 379.88 762.58
  C 327.83 731.07 272.22 711.57 212.21 701.49
  Q 112.77 684.79 12.55 696.34
  Q 10.81 696.54 9.05 696.52
  C 6.54 696.50 4.27 695.00 1.56 694.67
  Q 0.53 694.55 1.31 693.86
  C 66.68 635.25 144.35 594.43 231.76 581.54
  C 260.10 577.36 293.98 575.15 317.00 573.00
  C 320.34 572.69 351.39 569.37 341.81 561.93
  Q 336.47 557.78 330.30 554.95
  C 286.02 534.65 244.51 515.90 215.44 475.56
  C 198.68 452.30 191.76 428.49 184.42 402.07
  C 180.02 386.25 172.89 371.28 158.66 361.84
  Q 153.81 358.62 144.73 355.34
  Q 108.21 342.12 71.45 330.13
  Q 70.48 329.82 71.43 329.47
  Q 91.56 322.17 112.24 316.70
  C 172.17 300.85 234.72 293.18 296.51 297.36
  C 327.25 299.44 356.90 305.84 385.93 315.94
  Q 458.05 341.05 523.82 380.02
  A 0.53 0.50 30.0 0 0 524.53 379.85
  C 525.44 378.31 524.87 376.09 525.01 374.71
  C 526.02 364.90 526.48 353.98 527.74 345.21
  C 532.38 313.01 541.87 288.66 554.02 250.51
  C 563.97 219.28 570.23 188.45 575.93 152.69
  C 579.34 131.32 578.35 109.13 568.24 90.55
  Q 562.82 80.57 551.16 66.57
  C 528.99 39.96 503.32 20.37 475.08 0.85
  Q 474.09 0.16 475.28 0.37
  Q 556.96 14.61 628.31 54.75
  C 661.98 73.69 692.30 98.57 714.49 129.75
  C 718.89 135.94 722.50 141.88 725.25 149.25
  C 740.23 189.41 752.37 232.71 763.92 274.79
  Q 764.11 275.49 764.59 274.95
  Q 791.21 245.54 819.92 218.07
  C 853.78 185.66 891.41 157.57 932.21 133.72
  C 967.96 112.82 1004.52 94.23 1041.07 76.15
  Q 1042.55 75.42 1041.98 76.97
  Q 1025.45 122.03 1010.54 166.99
  Q 1006.47 179.28 1004.99 186.18
  Q 998.58 216.01 1004.70 247.51
  Q 1008.91 269.18 1009.87 274.08
  C 1028.32 368.96 974.90 439.13 916.87 505.64
  Q 858.52 572.51 781.26 616.22
  C 771.97 621.48 731.69 643.59 723.27 638.41
  C 718.02 635.18 722.22 628.58 725.52 626.00
  Q 750.61 606.33 767.66 592.14
  C 821.37 547.45 866.41 494.36 905.17 434.64
  C 930.30 395.93 942.69 355.43 948.15 309.98
  Q 953.37 266.53 953.76 222.86
  A 0.39 0.39 81.8 0 0 953.26 222.48
  C 922.93 231.64 893.26 244.21 866.39 261.06
  C 842.80 275.85 822.49 295.13 806.00 317.50
  C 795.62 331.57 789.13 347.43 781.18 364.43
  C 765.67 397.59 750.89 431.44 734.31 464.05
  Q 733.33 465.97 731.43 466.20
  Q 726.84 466.76 725.22 462.50
  Q 724.61 460.90 725.73 458.24
  L 735.75 434.50
  A 1.46 0.45 70.0 0 0 735.70 433.51
  Q 720.66 373.43 700.94 314.77
  C 688.10 276.58 669.96 240.66 646.95 207.56
  Q 641.83 200.20 636.04 193.37
  Q 635.71 192.99 635.80 193.48
  Q 636.61 198.41 636.92 199.52
  C 643.95 225.14 649.93 244.62 652.88 268.22
  Q 658.18 310.58 642.02 349.51
  Q 635.53 365.15 623.69 392.42
  C 611.53 420.41 606.03 451.34 608.96 481.72
  C 613.82 532.33 636.44 573.63 663.19 615.56
  Q 667.37 622.09 667.70 625.29
  C 668.36 631.68 662.29 634.59 657.32 631.19
  Q 654.13 629.01 649.22 621.52
  Q 637.00 602.91 624.48 584.49
  C 585.49 527.14 535.84 475.74 472.50 445.75
  C 430.20 425.73 381.32 417.50 334.50 419.75
  Q 320.46 420.42 307.12 423.41
  Q 304.31 424.04 307.03 424.98
  C 339.03 436.00 371.44 453.89 390.80 482.19
  Q 405.09 503.08 409.47 508.82
  Q 427.26 532.15 450.68 551.57
  C 488.65 583.05 531.89 608.48 577.17 627.84
  C 581.21 629.57 587.98 632.95 588.73 637.67
  C 589.62 643.23 583.92 645.95 578.91 645.97
  C 555.00 646.08 531.03 642.75 507.26 640.40
  C 421.41 631.93 336.58 632.76 252.01 649.54
  Q 242.72 651.38 217.03 657.21
  Q 216.31 657.37 216.69 657.76
  Z
  M 980.70 205.46
  L 964.75 217.51
  A 2.68 2.45 -20.2 0 0 963.70 219.54
  C 963.82 256.94 961.16 294.43 955.36 331.15
  Q 946.06 390.12 913.35 440.37
  Q 886.60 481.46 859.70 514.20
  Q 811.25 573.16 747.95 621.09
  C 747.42 621.49 747.41 622.06 748.40 621.61
  C 810.63 592.95 867.07 548.18 911.63 496.48
  C 964.68 434.93 1017.04 367.19 1000.59 279.45
  Q 997.88 264.98 994.94 250.56
  C 989.74 224.99 990.17 197.03 998.22 172.24
  Q 1010.60 134.13 1024.16 96.61
  Q 1024.41 95.94 1023.77 96.25
  C 978.99 118.18 934.82 141.85 893.84 170.35
  C 844.44 204.69 800.19 249.57 760.39 294.77
  Q 759.22 296.10 758.77 294.39
  Q 741.77 230.53 721.72 168.80
  C 718.49 158.88 714.52 147.73 708.41 138.72
  C 687.58 108.00 658.22 83.69 626.10 65.18
  Q 575.90 36.25 519.97 20.84
  Q 519.05 20.58 519.79 21.19
  C 538.62 36.48 556.11 54.46 570.00 74.37
  C 583.69 94.01 589.54 115.59 587.38 139.40
  C 586.33 150.90 584.51 162.15 582.59 173.68
  Q 575.54 216.18 562.42 257.22
  Q 549.42 297.90 546.34 308.32
  C 542.01 322.94 538.15 338.26 536.92 353.49
  Q 535.62 369.59 534.31 385.69
  A 0.95 0.71 21.1 0 0 534.78 386.44
  L 545.68 393.07
  Q 546.80 393.75 545.50 393.75
  L 527.75 393.75
  A 1.91 1.11 47.8 0 1 526.87 393.47
  C 478.90 364.71 428.15 340.55 375.03 322.91
  C 336.08 309.97 291.85 304.87 250.56 306.33
  Q 175.62 308.97 103.55 329.60
  Q 102.51 329.89 103.54 330.24
  Q 122.76 336.65 141.97 343.59
  Q 154.76 348.21 157.54 349.57
  C 186.59 363.81 192.17 392.42 200.74 422.27
  C 215.59 474.04 254.71 509.11 302.81 531.09
  C 314.42 536.40 325.92 541.86 337.41 547.41
  C 346.11 551.61 357.80 559.08 352.49 570.09
  C 348.42 578.53 334.40 580.83 326.00 582.01
  Q 313.05 583.83 287.18 585.61
  Q 255.96 587.75 225.10 592.83
  C 152.64 604.74 85.34 637.79 28.64 683.96
  Q 28.26 684.27 28.75 684.27
  Q 31.12 684.26 33.51 684.07
  Q 96.39 679.08 159.24 684.34
  C 238.98 691.01 314.90 711.88 383.39 753.13
  Q 409.81 769.05 436.21 785.02
  Q 479.60 811.27 527.33 828.39
  Q 572.13 844.47 616.35 860.29
  Q 617.47 860.69 616.50 861.37
  C 568.73 895.09 519.97 924.16 465.52 946.05
  C 398.16 973.13 323.60 984.00 251.73 972.25
  Q 249.84 971.95 251.64 972.61
  C 302.99 991.66 358.63 1000.60 413.21 991.00
  C 464.01 982.06 512.61 960.26 555.66 932.27
  Q 563.09 927.44 571.88 920.60
  Q 610.08 890.91 647.36 860.02
  A 1.36 1.31 24.6 0 1 648.25 859.71
  C 716.09 861.35 786.47 854.82 842.73 812.00
  C 860.58 798.42 878.51 778.67 877.41 754.41
  C 876.67 738.14 866.69 729.88 852.23 724.67
  A 0.67 0.41 21.6 0 1 851.74 724.01
  L 852.32 722.85
  A 0.42 0.38 -74.1 0 0 852.03 722.25
  C 821.12 720.55 793.28 729.04 768.53 748.02
  Q 722.16 783.59 674.13 818.05
  A 3.28 3.28 28.8 0 1 672.06 818.65
  C 613.28 815.70 555.56 800.75 504.56 770.63
  C 478.50 755.24 453.12 737.05 429.57 721.68
  Q 387.06 693.94 337.58 681.75
  Q 329.71 679.81 319.77 678.78
  Q 241.26 670.64 162.72 662.58
  Q 161.83 662.49 162.69 662.23
  C 235.72 639.55 310.42 626.19 387.00 624.99
  C 440.85 624.14 499.01 629.12 554.74 635.06
  Q 561.96 635.83 569.19 635.51
  Q 569.69 635.49 569.22 635.29
  Q 516.80 612.60 470.18 579.60
  C 445.13 561.88 419.85 540.01 401.45 515.30
  C 393.47 504.59 384.75 490.04 376.84 480.62
  C 356.96 456.96 328.65 443.27 300.56 433.07
  C 295.92 431.39 289.65 427.64 291.27 422.13
  C 295.53 407.62 355.76 409.03 368.12 409.84
  C 426.95 413.72 480.57 431.99 528.18 467.02
  C 563.41 492.94 593.83 525.27 619.82 560.30
  A 0.28 0.21 47.4 0 0 620.21 560.37
  Q 620.30 560.24 620.21 560.03
  C 594.33 504.86 590.17 444.24 614.57 387.63
  C 622.83 368.47 631.91 349.90 638.04 329.90
  C 646.92 300.92 645.53 272.47 638.15 243.32
  Q 634.29 228.05 627.22 200.94
  C 625.76 195.37 623.20 187.11 626.87 182.14
  C 634.29 172.09 647.44 191.08 651.10 196.13
  Q 684.36 241.99 704.49 294.97
  C 720.05 335.92 732.07 379.04 743.06 421.43
  Q 743.21 422.01 743.47 421.46
  C 758.61 388.43 773.75 355.22 790.19 322.82
  Q 791.07 321.09 792.20 319.46
  C 809.45 294.56 829.23 273.86 854.32 256.82
  C 890.98 231.93 936.52 214.66 980.45 205.17
  Q 981.35 204.97 980.70 205.46
  Z
  M 889.90 690.19
  C 918.85 668.33 975.78 630.85 1010.10 663.57
  C 1032.45 684.89 1017.39 712.46 992.04 720.31
  C 984.36 722.69 977.11 719.57 976.16 711.36
  Q 975.90 709.17 975.57 706.90
  A 0.43 0.42 76.2 0 0 975.02 706.56
  C 964.53 709.94 961.49 723.36 970.88 729.99
  Q 973.58 731.89 978.36 732.72
  C 1008.85 738.03 1036.79 717.71 1042.10 687.56
  C 1045.14 670.29 1037.75 656.10 1021.58 648.92
  C 1012.57 644.92 1003.77 644.36 992.97 644.30
  C 953.35 644.07 917.22 662.40 889.73 690.00
  Q 888.47 691.27 889.90 690.19
  Z"
/>
<path d="
  M 685.22 822.62
  Q 684.32 822.24 685.20 821.82
  Q 717.95 806.19 747.06 784.82
  C 758.11 776.72 772.93 763.79 781.81 757.29
  Q 803.94 741.08 832.76 741.36
  C 850.66 741.53 868.61 748.09 863.71 770.17
  C 860.12 786.38 845.57 802.01 831.42 810.99
  Q 801.31 830.10 766.26 834.80
  C 738.62 838.50 710.97 833.44 685.22 822.62
  Z
  M 710.34 820.79
  Q 754.36 832.60 796.79 816.82
  C 818.32 808.81 839.72 796.81 850.92 775.87
  C 856.97 764.55 856.15 754.04 841.14 752.11
  Q 809.25 748.01 784.41 768.15
  C 760.33 787.69 737.26 805.58 710.28 820.27
  Q 709.67 820.61 710.34 820.79
  Z"
/>
<path d="
  M 512.94 1096.14
  Q 511.89 1096.30 511.50 1096.21
  Q 503.96 1094.40 496.26 1095.14
  A 0.97 0.95 0.3 0 0 495.38 1095.99
  Q 494.25 1106.97 494.54 1118.00
  A 0.51 0.46 89.4 0 0 495.00 1118.50
  L 510.75 1118.50
  A 0.59 0.44 -84.1 0 1 511.16 1119.18
  L 508.86 1134.02
  A 0.68 0.51 0.3 0 1 508.25 1134.47
  L 495.00 1135.54
  A 0.54 0.45 -2.7 0 0 494.50 1136.00
  L 494.50 1191.50
  A 0.58 0.50 -90.0 0 1 494.00 1192.08
  L 472.50 1192.21
  A 0.71 0.43 90.0 0 1 472.07 1191.50
  L 471.81 1136.50
  A 0.75 0.57 90.0 0 0 471.24 1135.75
  L 464.74 1135.75
  A 0.69 0.53 -1.8 0 0 464.04 1136.32
  Q 464.14 1137.55 463.75 1138.70
  A 0.83 0.41 5.5 0 1 462.98 1138.99
  C 458.01 1138.74 447.67 1136.43 444.52 1141.14
  A 1.75 1.55 64.4 0 0 444.26 1142.05
  Q 444.24 1163.65 444.21 1185.25
  Q 444.21 1188.47 443.89 1191.68
  A 0.64 0.64 3.0 0 1 443.25 1192.25
  L 422.07 1192.24
  A 0.57 0.49 0.0 0 1 421.50 1191.75
  L 421.50 1119.00
  A 0.50 0.50 0.0 0 1 422.00 1118.50
  L 440.75 1118.50
  A 0.60 0.50 -3.3 0 1 441.33 1118.93
  L 441.75 1121.75
  A 0.46 0.32 -27.6 0 0 442.42 1121.83
  C 449.41 1116.63 456.43 1117.44 466.61 1117.29
  A 0.59 0.39 2.8 0 1 467.23 1117.75
  L 466.74 1120.50
  A 0.42 0.41 -0.6 0 0 467.24 1120.98
  L 471.57 1120.11
  A 0.82 0.41 89.0 0 0 471.93 1119.36
  C 472.07 1114.89 471.68 1110.00 472.52 1105.93
  C 475.49 1091.68 487.26 1076.92 502.55 1075.79
  Q 509.08 1075.31 517.25 1077.04
  C 521.48 1077.94 531.03 1074.40 535.71 1073.51
  A 0.49 0.45 84.7 0 1 536.25 1074.00
  L 536.25 1191.50
  A 0.74 0.50 -90.0 0 1 535.75 1192.24
  L 513.93 1192.21
  A 0.71 0.38 -90.0 0 1 513.55 1191.50
  L 513.52 1096.50
  A 0.51 0.39 -5.5 0 0 512.94 1096.14
  Z
  M 526.25 1087.03
  A 0.69 0.69 0.0 0 0 525.56 1086.34
  L 524.34 1086.34
  A 0.69 0.69 0.0 0 0 523.65 1087.03
  L 523.65 1181.53
  A 0.69 0.69 0.0 0 0 524.34 1182.22
  L 525.56 1182.22
  A 0.69 0.69 0.0 0 0 526.25 1181.53
  L 526.25 1087.03
  Z
  M 483.94 1103.17
  Q 481.54 1109.34 481.57 1116.01
  Q 481.70 1148.72 481.77 1181.44
  A 0.81 0.48 90.0 0 0 482.25 1182.25
  L 483.75 1182.25
  A 0.80 0.50 90.0 0 0 484.25 1181.45
  C 484.24 1155.42 483.86 1129.32 484.64 1103.31
  Q 484.71 1101.21 483.94 1103.17
  Z
  M 431.57 1130.98
  C 431.24 1147.72 431.32 1164.72 431.56 1181.44
  A 0.80 0.73 -79.5 0 0 432.01 1182.16
  Q 434.18 1183.11 434.22 1180.69
  Q 434.36 1171.68 434.22 1140.19
  C 434.20 1137.06 433.93 1133.31 433.18 1130.76
  Q 431.67 1125.65 431.57 1130.98
  Z"
/>
<path d="
  M 946.00 1121.75
  A 0.70 0.70 -14.2 0 0 947.03 1122.36
  C 960.83 1115.01 982.93 1114.05 988.48 1132.87
  Q 989.64 1136.78 989.70 1147.62
  Q 989.83 1169.68 989.72 1191.78
  A 0.48 0.47 -89.4 0 1 989.25 1192.25
  L 967.50 1192.25
  A 0.65 0.45 89.4 0 1 967.05 1191.61
  Q 966.98 1166.41 966.97 1141.32
  C 966.97 1131.27 951.97 1137.51 946.92 1139.61
  A 1.51 1.51 78.5 0 0 946.00 1141.00
  L 946.00 1191.75
  A 0.50 0.50 0.0 0 1 945.50 1192.25
  L 924.25 1192.25
  A 0.70 0.64 -0.4 0 1 923.55 1191.62
  Q 923.36 1139.00 923.52 1088.40
  C 923.52 1086.35 923.00 1082.34 923.45 1079.30
  A 0.80 0.76 88.0 0 1 924.03 1078.65
  L 945.49 1073.22
  A 0.52 0.41 84.5 0 1 946.00 1073.75
  L 946.00 1121.75
  Z
  M 935.96 1086.91
  A 0.60 0.60 0.0 0 0 935.36 1086.31
  L 933.88 1086.31
  A 0.60 0.60 0.0 0 0 933.28 1086.91
  L 933.28 1181.63
  A 0.60 0.60 0.0 0 0 933.88 1182.23
  L 935.36 1182.23
  A 0.60 0.60 0.0 0 0 935.96 1181.63
  L 935.96 1086.91
  Z
  M 971.94 1129.31
  Q 976.30 1132.78 976.45 1139.26
  Q 976.95 1160.34 977.04 1181.44
  A 0.85 0.57 -86.1 0 0 977.50 1182.23
  Q 978.58 1182.46 979.44 1181.97
  A 1.20 0.38 86.0 0 0 979.69 1180.94
  Q 979.31 1162.94 979.76 1144.95
  C 979.93 1138.24 979.14 1131.68 972.49 1128.47
  C 971.76 1128.12 970.13 1127.88 971.94 1129.31
  Z"
/>
<path d="
  M 688.25 1104.25
  L 688.25 1191.75
  A 0.50 0.50 0.0 0 1 687.75 1192.25
  L 666.25 1192.25
  A 0.64 0.31 -0.0 0 1 665.61 1191.94
  L 665.45 1105.25
  A 1.48 1.47 -89.4 0 0 664.01 1103.77
  L 635.75 1103.29
  A 0.52 0.48 4.0 0 1 635.24 1102.75
  L 637.32 1087.06
  A 0.76 0.64 3.0 0 1 638.06 1086.50
  L 718.00 1086.50
  A 0.46 0.43 3.8 0 1 718.46 1086.99
  L 716.23 1102.24
  A 0.78 0.77 -86.9 0 1 715.49 1102.91
  L 688.75 1103.83
  A 0.51 0.42 -0.7 0 0 688.25 1104.25
  Z
  M 678.25 1097.07
  A 0.50 0.50 0.0 0 0 677.75 1096.57
  L 675.99 1096.57
  A 0.50 0.50 0.0 0 0 675.49 1097.07
  L 675.49 1181.73
  A 0.50 0.50 0.0 0 0 675.99 1182.23
  L 677.75 1182.23
  A 0.50 0.50 0.0 0 0 678.25 1181.73
  L 678.25 1097.07
  Z"
/>
<path d="
  M 166.72 1136.09
  Q 184.75 1148.29 180.00 1170.51
  C 176.84 1185.25 163.62 1192.36 149.43 1193.03
  Q 129.56 1193.97 109.80 1191.64
  A 0.65 0.63 -86.5 0 1 109.25 1191.00
  L 109.25 1088.75
  A 0.61 0.49 -3.8 0 1 109.79 1088.25
  Q 128.96 1086.09 148.00 1087.17
  C 164.51 1088.10 177.67 1098.92 176.25 1116.53
  Q 175.31 1128.20 166.69 1135.50
  A 0.37 0.37 42.4 0 0 166.72 1136.09
  Z
  M 122.00 1098.27
  A 1.05 1.05 0.0 0 0 120.95 1097.22
  L 120.31 1097.22
  A 1.05 1.05 0.0 0 0 119.26 1098.27
  L 119.26 1181.65
  A 1.05 1.05 0.0 0 0 120.31 1182.70
  L 120.95 1182.70
  A 1.05 1.05 0.0 0 0 122.00 1181.65
  L 122.00 1098.27
  Z
  M 159.97 1101.49
  Q 157.51 1099.64 159.37 1102.10
  C 163.86 1108.04 163.55 1118.41 162.00 1125.27
  Q 161.67 1126.74 162.58 1125.54
  C 168.18 1118.06 168.12 1107.61 159.97 1101.49
  Z
  M 148.32 1105.77
  Q 146.46 1104.48 144.43 1104.10
  Q 138.63 1102.99 132.75 1103.55
  A 0.54 0.44 -2.7 0 0 132.25 1104.00
  L 132.25 1128.00
  A 0.56 0.46 1.3 0 0 132.79 1128.46
  C 138.47 1128.67 148.91 1129.76 151.71 1123.73
  C 154.13 1118.52 153.94 1109.66 148.32 1105.77
  Z
  M 132.76 1175.96
  C 138.34 1176.28 153.60 1177.80 155.99 1170.72
  C 159.02 1161.76 158.03 1149.90 147.23 1146.57
  Q 142.03 1144.97 132.78 1145.28
  A 0.55 0.47 -1.3 0 0 132.25 1145.75
  L 132.25 1175.50
  A 0.53 0.46 1.3 0 0 132.76 1175.96
  Z
  M 163.78 1147.23
  C 168.56 1155.38 168.67 1168.57 163.98 1177.61
  Q 163.43 1178.67 164.36 1177.92
  C 173.95 1170.18 172.36 1155.02 164.56 1146.99
  A 0.83 0.60 59.1 0 0 163.95 1146.73
  Q 163.52 1146.78 163.78 1147.23
  Z"
/>
<path d="
  M 290.68 1174.93
  Q 298.99 1175.21 307.24 1174.44
  A 0.70 0.58 -3.1 0 1 308.00 1175.00
  L 308.00 1186.75
  A 1.07 0.64 -19.7 0 1 307.39 1187.49
  C 294.88 1193.74 268.50 1200.19 267.60 1177.06
  Q 267.35 1170.72 267.52 1136.02
  A 0.79 0.56 -88.5 0 0 267.00 1135.25
  L 261.24 1134.78
  A 1.07 1.04 2.4 0 1 260.26 1133.74
  L 260.25 1124.50
  A 1.22 0.86 -26.2 0 1 260.69 1123.69
  L 279.77 1107.51
  A 1.64 0.58 -47.1 0 1 280.75 1107.00
  L 288.75 1107.00
  A 0.77 0.72 89.2 0 1 289.47 1107.75
  L 289.73 1116.99
  A 1.56 1.25 89.1 0 0 290.99 1118.51
  L 306.93 1118.48
  A 1.04 0.24 0.8 0 1 308.02 1118.75
  Q 307.89 1119.23 308.17 1119.56
  A 0.69 0.50 -40.0 0 0 309.01 1119.50
  L 323.19 1107.44
  A 1.30 0.37 -44.5 0 1 324.00 1107.00
  L 332.50 1107.00
  A 0.76 0.43 89.4 0 1 332.94 1107.75
  L 333.14 1117.93
  A 0.86 0.58 -0.3 0 0 334.00 1118.50
  L 351.00 1118.50
  A 0.49 0.44 3.6 0 1 351.49 1119.00
  L 349.44 1133.49
  A 0.81 0.61 -1.0 0 1 348.75 1134.03
  L 333.76 1135.54
  A 0.73 0.53 87.9 0 0 333.28 1136.25
  L 333.34 1173.00
  Q 333.35 1175.09 335.23 1175.02
  L 350.24 1174.46
  A 0.97 0.80 -1.4 0 1 351.25 1175.25
  L 351.25 1186.75
  A 0.84 0.78 -14.0 0 1 350.78 1187.47
  C 342.04 1191.73 326.07 1196.82 317.12 1190.32
  Q 310.93 1185.82 310.85 1177.55
  Q 310.65 1157.04 310.78 1136.03
  A 0.73 0.73 2.5 0 0 310.10 1135.29
  C 306.77 1135.03 303.66 1134.35 300.30 1134.71
  Q 295.46 1135.22 290.62 1135.62
  A 0.64 0.63 -2.5 0 0 290.03 1136.25
  L 290.10 1174.25
  A 0.68 0.60 -89.1 0 0 290.68 1174.93
  Z
  M 277.44 1126.80
  Q 277.54 1151.77 277.74 1176.75
  Q 277.79 1183.18 283.97 1183.46
  Q 284.43 1183.48 284.12 1183.14
  C 279.95 1178.51 280.06 1174.37 280.03 1167.38
  Q 279.96 1144.35 280.01 1121.30
  Q 280.01 1120.50 279.33 1121.07
  L 274.31 1125.31
  Q 273.58 1125.92 274.57 1125.96
  L 276.93 1126.06
  A 0.75 0.53 -89.2 0 1 277.44 1126.80
  Z
  M 320.44 1126.06
  A 0.49 0.49 86.0 0 1 321.00 1126.55
  Q 320.99 1151.21 321.02 1175.87
  C 321.02 1180.19 322.25 1183.35 327.00 1183.32
  Q 327.50 1183.31 327.18 1182.92
  Q 323.34 1178.35 323.32 1172.24
  Q 323.24 1147.53 323.23 1122.67
  Q 323.23 1120.63 321.71 1121.94
  L 317.95 1125.18
  A 0.40 0.29 -50.6 0 0 317.92 1125.77
  Q 319.09 1126.24 320.44 1126.06
  Z"
/>
<path d="
  M 582.69 1163.19
  Q 588.30 1147.99 588.00 1131.75
  Q 587.96 1129.60 585.31 1121.18
  A 0.59 0.53 -15.6 0 1 585.75 1120.48
  L 604.47 1116.13
  A 0.81 0.66 65.9 0 1 605.26 1116.53
  C 618.44 1138.11 591.60 1184.11 579.02 1202.43
  C 570.74 1214.49 561.83 1227.62 548.14 1233.59
  C 541.05 1236.68 531.80 1236.49 525.62 1231.32
  A 1.10 1.02 -71.3 0 1 525.25 1230.50
  L 525.25 1219.25
  A 0.49 0.44 1.8 0 1 525.77 1218.81
  C 528.70 1218.96 532.10 1220.65 534.73 1220.07
  C 546.63 1217.47 561.63 1199.06 568.10 1189.22
  A 1.17 1.16 52.7 0 0 568.23 1188.21
  Q 559.78 1163.58 548.58 1140.05
  C 546.80 1136.32 545.38 1133.02 541.59 1133.14
  Q 538.98 1133.23 537.78 1133.05
  A 0.65 0.60 2.6 0 1 537.24 1132.50
  Q 536.70 1126.87 537.28 1121.25
  A 0.78 0.77 -7.6 0 1 537.78 1120.61
  Q 542.47 1118.90 549.74 1118.09
  C 561.38 1116.79 565.44 1122.95 569.88 1132.80
  Q 576.58 1147.67 581.88 1163.08
  Q 582.29 1164.27 582.69 1163.19
  Z
  M 598.7074 1128.3529
  A 0.27 0.27 0.0 0 0 598.4393 1128.0810
  L 598.1793 1128.0792
  A 0.27 0.27 0.0 0 0 597.9074 1128.3473
  L 597.8526 1136.2071
  A 0.27 0.27 0.0 0 0 598.1207 1136.4790
  L 598.3807 1136.4808
  A 0.27 0.27 0.0 0 0 598.6526 1136.2127
  L 598.7074 1128.3529
  Z
  M 577.65 1181.22
  C 573.62 1169.50 559.33 1127.66 554.31 1128.33
  A 0.37 0.35 70.9 0 0 554.07 1128.87
  C 563.76 1146.11 570.81 1165.45 577.62 1184.01
  A 0.63 0.32 67.7 0 0 578.19 1184.50
  Q 580.79 1183.11 578.38 1181.88
  A 1.43 0.62 18.7 0 1 577.65 1181.22
  Z"
/>
<path d="
  M 373.86 1159.35
  C 371.32 1183.52 400.20 1172.66 410.55 1167.61
  A 0.57 0.42 -25.4 0 1 411.25 1167.75
  L 416.24 1178.76
  A 0.88 0.72 -30.7 0 1 415.89 1179.73
  C 405.84 1186.76 394.56 1192.66 382.45 1193.34
  C 352.14 1195.04 345.88 1164.51 352.04 1141.77
  C 355.66 1128.40 363.68 1120.36 377.30 1117.84
  C 392.75 1114.99 406.31 1121.96 411.70 1136.93
  C 414.42 1144.49 416.66 1151.50 407.02 1154.68
  C 396.52 1158.14 385.37 1158.22 374.43 1158.83
  A 0.61 0.59 1.6 0 0 373.86 1159.35
  Z
  M 395.80 1131.18
  Q 394.14 1129.76 395.35 1131.68
  Q 399.35 1138.05 400.09 1145.58
  A 0.68 0.52 82.0 0 0 400.73 1146.21
  L 403.19 1145.70
  A 0.87 0.36 80.7 0 0 403.40 1144.80
  Q 402.06 1136.55 395.80 1131.18
  Z
  M 388.85 1141.53
  C 387.56 1135.71 383.63 1133.45 377.82 1135.46
  A 3.13 2.43 -4.8 0 0 375.93 1137.20
  L 374.25 1142.50
  A 0.47 0.43 5.7 0 0 374.75 1143.06
  L 388.49 1142.18
  A 0.54 0.43 80.8 0 0 388.85 1141.53
  Z
  M 360.48 1162.73
  C 361.47 1171.00 364.76 1181.33 374.43 1182.68
  Q 374.94 1182.75 374.49 1182.49
  C 360.23 1174.38 362.54 1150.53 364.93 1137.65
  A 0.50 0.28 -84.7 0 0 364.67 1137.05
  Q 364.46 1137.09 364.26 1137.56
  Q 358.93 1149.76 360.48 1162.73
  Z"
/>
<path d="
  M 732.27 1192.92
  C 709.33 1190.50 701.83 1169.93 703.68 1149.84
  C 705.31 1132.11 715.61 1119.74 734.11 1117.61
  C 765.59 1114.00 778.99 1138.31 774.05 1165.57
  C 770.05 1187.63 753.05 1195.11 732.27 1192.92
  Z
  M 757.15 1133.64
  C 763.77 1143.65 762.37 1162.53 759.78 1173.98
  Q 759.64 1174.59 760.14 1174.31
  Q 760.37 1174.17 760.50 1173.93
  C 766.65 1161.87 767.64 1143.98 757.67 1133.45
  A 0.67 0.46 61.0 0 0 757.25 1133.24
  Q 756.89 1133.26 757.15 1133.64
  Z
  M 735.94 1175.93
  Q 741.74 1177.46 747.47 1174.23
  Q 749.81 1172.91 750.31 1170.27
  Q 751.89 1161.98 751.56 1153.58
  C 751.12 1142.54 749.97 1133.04 735.68 1134.97
  C 728.69 1135.92 728.26 1139.80 727.37 1146.26
  Q 726.41 1153.32 727.07 1160.41
  C 727.72 1167.39 727.75 1173.77 735.94 1175.93
  Z
  M 718.45 1136.42
  C 711.49 1148.25 711.15 1166.42 720.36 1177.10
  A 0.11 0.11 -41.2 0 0 720.51 1177.11
  L 720.60 1177.03
  A 0.28 0.26 -34.3 0 0 720.67 1176.71
  C 715.02 1165.45 715.80 1148.27 718.91 1136.62
  Q 719.40 1134.80 718.45 1136.42
  Z"
/>
<path d="
  M 868.65 1186.10
  C 858.26 1176.00 856.89 1158.24 859.93 1145.02
  C 866.80 1115.05 894.08 1114.26 918.72 1120.19
  A 0.51 0.49 15.7 0 1 919.09 1120.82
  L 912.80 1140.81
  A 0.51 0.49 -66.9 0 1 912.09 1141.11
  Q 900.99 1135.33 891.47 1134.57
  C 879.13 1133.59 881.69 1161.30 883.25 1167.77
  C 886.21 1179.99 907.38 1172.55 914.31 1168.74
  A 0.64 0.59 63.9 0 1 915.16 1169.07
  L 919.82 1179.97
  A 1.20 1.12 60.1 0 1 919.50 1181.36
  C 905.76 1192.11 883.20 1200.25 868.65 1186.10
  Z
  M 868.74 1155.10
  C 868.45 1165.61 870.38 1179.75 882.79 1182.70
  A 0.41 0.22 17.4 0 0 883.18 1182.63
  Q 883.27 1182.49 882.92 1182.32
  C 870.55 1176.13 871.96 1159.60 872.37 1147.06
  Q 872.52 1142.45 873.90 1138.07
  A 0.47 0.30 -71.3 0 0 873.77 1137.54
  Q 873.54 1137.46 873.34 1137.84
  Q 868.98 1146.06 868.74 1155.10
  Z"
/>
<path d="
  M 232.46 1187.86
  C 218.28 1196.00 193.13 1197.62 188.53 1175.70
  Q 188.09 1173.57 188.03 1161.73
  Q 187.94 1140.41 188.03 1119.05
  A 0.56 0.47 -89.4 0 1 188.50 1118.50
  L 210.25 1118.50
  A 0.65 0.39 89.3 0 1 210.64 1119.14
  Q 210.85 1144.62 210.80 1169.99
  C 210.77 1179.52 227.10 1173.03 231.29 1170.91
  A 0.83 0.68 -15.8 0 0 231.75 1170.25
  L 231.75 1119.00
  A 0.50 0.50 0.0 0 1 232.25 1118.50
  L 253.75 1118.50
  A 0.75 0.53 90.0 0 1 254.28 1119.25
  L 254.27 1191.81
  A 0.52 0.44 -0.0 0 1 253.75 1192.25
  L 235.75 1192.25
  A 0.96 0.57 -4.5 0 1 234.89 1191.83
  L 233.97 1188.76
  A 1.26 0.97 68.2 0 0 232.46 1187.86
  Z
  M 198.25 1129.04
  C 198.30 1140.80 197.96 1152.54 198.08 1164.29
  C 198.18 1173.03 197.75 1178.57 205.33 1182.53
  A 1.21 1.01 45.7 0 0 206.22 1182.62
  C 207.28 1182.23 205.69 1181.67 205.48 1181.46
  Q 200.53 1176.32 200.51 1168.99
  Q 200.46 1149.28 200.51 1129.57
  A 0.95 0.30 -88.3 0 0 200.26 1128.70
  L 198.75 1128.25
  A 0.73 0.40 -86.0 0 0 198.25 1129.04
  Z
  M 243.53 1128.50
  C 242.28 1128.13 241.76 1128.66 241.76 1129.90
  Q 241.73 1154.19 241.77 1179.51
  A 3.19 3.16 -65.0 0 0 242.50 1181.54
  C 243.60 1182.86 244.00 1182.20 244.00 1181.00
  Q 244.00 1154.91 244.00 1129.13
  A 0.66 0.66 8.3 0 0 243.53 1128.50
  Z"
/>
<path d="
  M 828.20 1187.97
  Q 826.44 1188.59 822.16 1190.38
  C 808.87 1195.96 790.29 1195.03 784.67 1179.16
  Q 783.26 1175.17 783.25 1167.02
  Q 783.23 1143.05 783.27 1119.05
  A 0.55 0.48 -90.0 0 1 783.75 1118.50
  L 805.25 1118.50
  A 0.54 0.48 90.0 0 1 805.73 1119.04
  Q 805.76 1144.16 805.75 1169.25
  C 805.75 1179.56 821.39 1173.39 826.16 1171.14
  A 1.57 1.44 78.6 0 0 827.00 1169.75
  L 827.00 1119.00
  A 0.50 0.50 0.0 0 1 827.50 1118.50
  L 849.00 1118.50
  A 0.50 0.50 0.0 0 1 849.50 1119.00
  L 849.50 1191.75
  A 0.50 0.50 0.0 0 1 849.00 1192.25
  L 831.00 1192.25
  A 1.10 0.88 -13.3 0 1 830.14 1191.84
  Q 829.07 1190.16 828.88 1188.18
  A 0.55 0.35 -15.5 0 0 828.20 1187.97
  Z
  M 793.28 1169.44
  C 793.30 1174.26 795.34 1182.04 801.28 1182.50
  Q 801.81 1182.54 801.40 1182.18
  Q 795.70 1177.09 795.73 1169.50
  Q 795.79 1151.22 795.52 1139.31
  C 795.45 1136.49 796.04 1132.55 795.50 1129.07
  A 0.97 0.22 34.7 0 0 794.99 1128.51
  Q 794.35 1128.00 793.75 1128.50
  A 1.18 0.45 -34.3 0 0 793.24 1129.24
  Q 793.22 1149.36 793.28 1169.44
  Z
  M 836.94 1178.31
  Q 836.97 1179.69 837.88 1181.87
  A 0.69 0.59 -9.2 0 0 838.50 1182.25
  L 838.75 1182.25
  A 0.50 0.50 0.0 0 0 839.25 1181.75
  L 839.25 1129.25
  A 0.77 0.60 -86.1 0 0 838.75 1128.51
  Q 837.92 1128.37 837.19 1128.67
  A 1.03 0.55 85.2 0 0 836.81 1129.56
  Q 836.50 1160.29 836.94 1178.31
  Z"
/>
</g>
</svg>
